<mxfile host="app.diagrams.net" modified="2021-09-10T08:51:18.247Z" agent="5.0 (Windows NT 10.0; Win64; x64) AppleWebKit/537.36 (KHTML, like Gecko) Chrome/92.0.4515.159 Safari/537.36" etag="Xsc7lSo6oma7tm_5_kPp" version="15.1.4" type="github">
  <diagram id="InOUX-wCvnSkSc2IN7WC" name="Page-1">
    <mxGraphModel dx="2297" dy="1808" grid="1" gridSize="10" guides="1" tooltips="1" connect="1" arrows="1" fold="1" page="1" pageScale="1" pageWidth="850" pageHeight="1100" math="0" shadow="0">
      <root>
        <mxCell id="0" />
        <mxCell id="1" parent="0" />
        <mxCell id="5_yFi9ozTIobgD-HVOoX-1" value="Login&lt;br&gt;Microservice" style="whiteSpace=wrap;html=1;aspect=fixed;" parent="1" vertex="1">
          <mxGeometry x="-45" y="-990" width="80" height="80" as="geometry" />
        </mxCell>
        <mxCell id="5_yFi9ozTIobgD-HVOoX-2" value="Payment&lt;br&gt;Microservice" style="whiteSpace=wrap;html=1;aspect=fixed;" parent="1" vertex="1">
          <mxGeometry x="200" y="-750" width="80" height="80" as="geometry" />
        </mxCell>
        <mxCell id="5_yFi9ozTIobgD-HVOoX-3" value="Booking&lt;br&gt;Microservice" style="whiteSpace=wrap;html=1;aspect=fixed;" parent="1" vertex="1">
          <mxGeometry x="200" y="-620" width="80" height="80" as="geometry" />
        </mxCell>
        <mxCell id="5_yFi9ozTIobgD-HVOoX-5" value="Currency&lt;br&gt;Microservice" style="whiteSpace=wrap;html=1;aspect=fixed;" parent="1" vertex="1">
          <mxGeometry x="200" y="-480" width="80" height="80" as="geometry" />
        </mxCell>
        <mxCell id="5_yFi9ozTIobgD-HVOoX-7" value="Venue&lt;br&gt;Microservice" style="whiteSpace=wrap;html=1;aspect=fixed;" parent="1" vertex="1">
          <mxGeometry x="210" y="-320" width="80" height="80" as="geometry" />
        </mxCell>
        <mxCell id="5_yFi9ozTIobgD-HVOoX-8" value="Login DB" style="shape=cylinder3;whiteSpace=wrap;html=1;boundedLbl=1;backgroundOutline=1;size=15;" parent="1" vertex="1">
          <mxGeometry x="70" y="-990" width="60" height="80" as="geometry" />
        </mxCell>
        <mxCell id="5_yFi9ozTIobgD-HVOoX-9" value="Payment&lt;br&gt;DB" style="shape=cylinder3;whiteSpace=wrap;html=1;boundedLbl=1;backgroundOutline=1;size=15;" parent="1" vertex="1">
          <mxGeometry x="210" y="-860" width="60" height="80" as="geometry" />
        </mxCell>
        <mxCell id="5_yFi9ozTIobgD-HVOoX-10" value="Booking DB" style="shape=cylinder3;whiteSpace=wrap;html=1;boundedLbl=1;backgroundOutline=1;size=15;" parent="1" vertex="1">
          <mxGeometry x="330" y="-620" width="60" height="80" as="geometry" />
        </mxCell>
        <mxCell id="5_yFi9ozTIobgD-HVOoX-12" value="Venue&lt;br&gt;DB" style="shape=cylinder3;whiteSpace=wrap;html=1;boundedLbl=1;backgroundOutline=1;size=15;" parent="1" vertex="1">
          <mxGeometry x="360" y="-320" width="60" height="80" as="geometry" />
        </mxCell>
        <mxCell id="5_yFi9ozTIobgD-HVOoX-15" value="&amp;nbsp;" style="text;html=1;align=center;verticalAlign=middle;resizable=0;points=[];autosize=1;strokeColor=none;fillColor=none;" parent="1" vertex="1">
          <mxGeometry x="-150" y="-420" width="20" height="20" as="geometry" />
        </mxCell>
        <mxCell id="5_yFi9ozTIobgD-HVOoX-17" value="&lt;font style=&quot;font-size: 23px&quot;&gt;&lt;b&gt;API&amp;nbsp;&lt;br&gt;Gateway&lt;/b&gt;&lt;/font&gt;" style="rounded=0;whiteSpace=wrap;html=1;" parent="1" vertex="1">
          <mxGeometry x="-50" y="-760" width="90" height="570" as="geometry" />
        </mxCell>
        <mxCell id="5_yFi9ozTIobgD-HVOoX-19" value="" style="whiteSpace=wrap;html=1;aspect=fixed;" parent="1" vertex="1">
          <mxGeometry x="-650" y="-710" width="470" height="470" as="geometry" />
        </mxCell>
        <mxCell id="5_yFi9ozTIobgD-HVOoX-20" value="&lt;font size=&quot;1&quot;&gt;&lt;b style=&quot;font-size: 22px&quot;&gt;Common UI Client&lt;/b&gt;&lt;/font&gt;" style="text;html=1;strokeColor=none;fillColor=none;align=center;verticalAlign=middle;whiteSpace=wrap;rounded=0;" parent="1" vertex="1">
          <mxGeometry x="-710" y="-740" width="320" height="20" as="geometry" />
        </mxCell>
        <mxCell id="5_yFi9ozTIobgD-HVOoX-22" value="&lt;font style=&quot;font-size: 21px&quot;&gt;Login UI Component&lt;/font&gt;" style="rounded=0;whiteSpace=wrap;html=1;fillColor=#ffffff;" parent="1" vertex="1">
          <mxGeometry x="-620" y="-690" width="400" height="50" as="geometry" />
        </mxCell>
        <mxCell id="5_yFi9ozTIobgD-HVOoX-23" value="&lt;font style=&quot;font-size: 21px&quot;&gt;Payment UI Component&lt;/font&gt;" style="rounded=0;whiteSpace=wrap;html=1;fillColor=#ffffff;" parent="1" vertex="1">
          <mxGeometry x="-630" y="-410" width="190" height="110" as="geometry" />
        </mxCell>
        <mxCell id="5_yFi9ozTIobgD-HVOoX-24" value="&lt;font style=&quot;font-size: 21px&quot;&gt;Currency UI Component&lt;/font&gt;" style="rounded=0;whiteSpace=wrap;html=1;fillColor=#ffffff;" parent="1" vertex="1">
          <mxGeometry x="-410" y="-410" width="190" height="110" as="geometry" />
        </mxCell>
        <mxCell id="5_yFi9ozTIobgD-HVOoX-25" value="&lt;font style=&quot;font-size: 21px&quot;&gt;Booking UI Component&lt;/font&gt;" style="rounded=0;whiteSpace=wrap;html=1;fillColor=#ffffff;" parent="1" vertex="1">
          <mxGeometry x="-630" y="-570" width="190" height="110" as="geometry" />
        </mxCell>
        <mxCell id="5_yFi9ozTIobgD-HVOoX-31" value="" style="endArrow=classic;html=1;entryX=0;entryY=0.5;entryDx=0;entryDy=0;entryPerimeter=0;exitX=1;exitY=0.5;exitDx=0;exitDy=0;" parent="1" source="5_yFi9ozTIobgD-HVOoX-7" target="5_yFi9ozTIobgD-HVOoX-12" edge="1">
          <mxGeometry width="50" height="50" relative="1" as="geometry">
            <mxPoint x="60" y="-250" as="sourcePoint" />
            <mxPoint x="200" y="-260" as="targetPoint" />
          </mxGeometry>
        </mxCell>
        <mxCell id="5_yFi9ozTIobgD-HVOoX-33" value="" style="endArrow=classic;html=1;entryX=0;entryY=0.5;entryDx=0;entryDy=0;entryPerimeter=0;exitX=1;exitY=0.5;exitDx=0;exitDy=0;" parent="1" source="5_yFi9ozTIobgD-HVOoX-3" target="5_yFi9ozTIobgD-HVOoX-10" edge="1">
          <mxGeometry width="50" height="50" relative="1" as="geometry">
            <mxPoint x="270" y="-500" as="sourcePoint" />
            <mxPoint x="390" y="-500.71000000000004" as="targetPoint" />
          </mxGeometry>
        </mxCell>
        <mxCell id="5_yFi9ozTIobgD-HVOoX-34" value="" style="endArrow=classic;html=1;entryX=0.5;entryY=1;entryDx=0;entryDy=0;entryPerimeter=0;exitX=0.5;exitY=0;exitDx=0;exitDy=0;" parent="1" source="5_yFi9ozTIobgD-HVOoX-2" target="5_yFi9ozTIobgD-HVOoX-9" edge="1">
          <mxGeometry width="50" height="50" relative="1" as="geometry">
            <mxPoint x="270" y="-680.71" as="sourcePoint" />
            <mxPoint x="390" y="-680.71" as="targetPoint" />
          </mxGeometry>
        </mxCell>
        <mxCell id="5_yFi9ozTIobgD-HVOoX-35" value="" style="endArrow=classic;html=1;entryX=0;entryY=0.5;entryDx=0;entryDy=0;entryPerimeter=0;exitX=1;exitY=0.5;exitDx=0;exitDy=0;" parent="1" source="5_yFi9ozTIobgD-HVOoX-1" target="5_yFi9ozTIobgD-HVOoX-8" edge="1">
          <mxGeometry width="50" height="50" relative="1" as="geometry">
            <mxPoint x="280" y="-670.71" as="sourcePoint" />
            <mxPoint x="400" y="-670" as="targetPoint" />
          </mxGeometry>
        </mxCell>
        <mxCell id="5_yFi9ozTIobgD-HVOoX-43" value="&lt;font style=&quot;font-size: 21px&quot;&gt;Venue UI Component&lt;/font&gt;" style="rounded=0;whiteSpace=wrap;html=1;fillColor=#ffffff;" parent="1" vertex="1">
          <mxGeometry x="-410" y="-570" width="190" height="110" as="geometry" />
        </mxCell>
        <mxCell id="5_yFi9ozTIobgD-HVOoX-45" value="" style="endArrow=classic;html=1;exitX=1;exitY=0.5;exitDx=0;exitDy=0;entryX=0;entryY=0.5;entryDx=0;entryDy=0;" parent="1" source="5_yFi9ozTIobgD-HVOoX-19" target="5_yFi9ozTIobgD-HVOoX-17" edge="1">
          <mxGeometry width="50" height="50" relative="1" as="geometry">
            <mxPoint x="170" y="-500" as="sourcePoint" />
            <mxPoint x="220" y="-550" as="targetPoint" />
          </mxGeometry>
        </mxCell>
        <mxCell id="4Vw_JOn8eFLENW9p4MJm-2" value="" style="endArrow=none;html=1;exitX=1.015;exitY=0.895;exitDx=0;exitDy=0;exitPerimeter=0;entryX=0;entryY=0.5;entryDx=0;entryDy=0;" edge="1" parent="1" target="5_yFi9ozTIobgD-HVOoX-7">
          <mxGeometry width="50" height="50" relative="1" as="geometry">
            <mxPoint x="41.34999999999991" y="-279.8499999999999" as="sourcePoint" />
            <mxPoint x="160" y="-470" as="targetPoint" />
            <Array as="points">
              <mxPoint x="140" y="-280" />
            </Array>
          </mxGeometry>
        </mxCell>
        <mxCell id="4Vw_JOn8eFLENW9p4MJm-4" value="" style="endArrow=none;html=1;exitX=1.033;exitY=0.308;exitDx=0;exitDy=0;exitPerimeter=0;entryX=0;entryY=0.5;entryDx=0;entryDy=0;" edge="1" parent="1" source="5_yFi9ozTIobgD-HVOoX-17" target="5_yFi9ozTIobgD-HVOoX-3">
          <mxGeometry width="50" height="50" relative="1" as="geometry">
            <mxPoint x="49.64000000000033" y="-362.9699999999998" as="sourcePoint" />
            <mxPoint x="200" y="-380" as="targetPoint" />
          </mxGeometry>
        </mxCell>
        <mxCell id="4Vw_JOn8eFLENW9p4MJm-5" value="" style="endArrow=none;html=1;exitX=0.996;exitY=0.085;exitDx=0;exitDy=0;exitPerimeter=0;entryX=0;entryY=0.5;entryDx=0;entryDy=0;" edge="1" parent="1" source="5_yFi9ozTIobgD-HVOoX-17" target="5_yFi9ozTIobgD-HVOoX-2">
          <mxGeometry width="50" height="50" relative="1" as="geometry">
            <mxPoint x="52.970000000000255" y="-523.1400000000001" as="sourcePoint" />
            <mxPoint x="200" y="-520" as="targetPoint" />
          </mxGeometry>
        </mxCell>
        <mxCell id="4Vw_JOn8eFLENW9p4MJm-6" value="" style="endArrow=none;html=1;exitX=0.5;exitY=0;exitDx=0;exitDy=0;entryX=0.5;entryY=1;entryDx=0;entryDy=0;" edge="1" parent="1" source="5_yFi9ozTIobgD-HVOoX-17" target="5_yFi9ozTIobgD-HVOoX-1">
          <mxGeometry width="50" height="50" relative="1" as="geometry">
            <mxPoint x="49.64000000000033" y="-701.55" as="sourcePoint" />
            <mxPoint x="200" y="-790" as="targetPoint" />
          </mxGeometry>
        </mxCell>
        <mxCell id="4Vw_JOn8eFLENW9p4MJm-10" value="" style="endArrow=none;html=1;entryX=0;entryY=0.5;entryDx=0;entryDy=0;" edge="1" parent="1" target="5_yFi9ozTIobgD-HVOoX-5">
          <mxGeometry width="50" height="50" relative="1" as="geometry">
            <mxPoint x="40" y="-440" as="sourcePoint" />
            <mxPoint x="130" y="-474.16999999999996" as="targetPoint" />
          </mxGeometry>
        </mxCell>
        <mxCell id="4Vw_JOn8eFLENW9p4MJm-12" value="&lt;font style=&quot;font-size: 17px&quot;&gt;Assume currency service always 3rd party api&lt;/font&gt;" style="text;html=1;strokeColor=none;fillColor=none;align=center;verticalAlign=middle;whiteSpace=wrap;rounded=0;" vertex="1" parent="1">
          <mxGeometry x="310" y="-495" width="150" height="110" as="geometry" />
        </mxCell>
      </root>
    </mxGraphModel>
  </diagram>
</mxfile>
